<mxfile host="65bd71144e">
    <diagram id="yP7eIl9VmXQFV-1njnLd" name="Page-1">
        <mxGraphModel dx="1034" dy="759" grid="1" gridSize="10" guides="1" tooltips="1" connect="1" arrows="1" fold="1" page="1" pageScale="1" pageWidth="850" pageHeight="1100" math="0" shadow="0">
            <root>
                <mxCell id="0"/>
                <mxCell id="1" parent="0"/>
                <mxCell id="2" value="" style="rounded=0;whiteSpace=wrap;html=1;strokeColor=none;fillColor=#2B303B;" parent="1" vertex="1">
                    <mxGeometry width="350" height="430" as="geometry"/>
                </mxCell>
                <mxCell id="4" value="" style="ellipse;whiteSpace=wrap;html=1;fillColor=#5E81AC;strokeColor=#5E81AC;" parent="1" vertex="1">
                    <mxGeometry x="20" y="120" width="40" height="40" as="geometry"/>
                </mxCell>
                <mxCell id="5" value="" style="ellipse;whiteSpace=wrap;html=1;fillColor=#2B303B;strokeColor=#6b7280;" parent="1" vertex="1">
                    <mxGeometry x="20" y="20" width="40" height="40" as="geometry"/>
                </mxCell>
                <mxCell id="7" value="" style="ellipse;whiteSpace=wrap;html=1;fillColor=#96B5B4;strokeColor=#96B5B4;" parent="1" vertex="1">
                    <mxGeometry x="20" y="170" width="40" height="40" as="geometry"/>
                </mxCell>
                <mxCell id="9" value="" style="ellipse;whiteSpace=wrap;html=1;fillColor=#A3BE8C;strokeColor=#A3BE8C;" parent="1" vertex="1">
                    <mxGeometry x="20" y="220" width="40" height="40" as="geometry"/>
                </mxCell>
                <mxCell id="11" value="" style="ellipse;whiteSpace=wrap;html=1;fillColor=#B48EAD;strokeColor=#B48EAD;" parent="1" vertex="1">
                    <mxGeometry x="20" y="270" width="40" height="40" as="geometry"/>
                </mxCell>
                <mxCell id="13" value="" style="ellipse;whiteSpace=wrap;html=1;fillColor=#BF616A;strokeColor=#BF616A;" parent="1" vertex="1">
                    <mxGeometry x="20" y="320" width="40" height="40" as="geometry"/>
                </mxCell>
                <mxCell id="14" value="" style="ellipse;whiteSpace=wrap;html=1;fillColor=#c7ccd1;strokeColor=#c7ccd1;" parent="1" vertex="1">
                    <mxGeometry x="20" y="70" width="40" height="40" as="geometry"/>
                </mxCell>
                <mxCell id="15" value="" style="ellipse;whiteSpace=wrap;html=1;fillColor=#EBCB8B;strokeColor=#EBCB8B;" parent="1" vertex="1">
                    <mxGeometry x="20" y="370" width="40" height="40" as="geometry"/>
                </mxCell>
                <mxCell id="16" value="&lt;b&gt;Black&lt;/b&gt;&lt;br&gt;&lt;font style=&quot;font-size: 12px;&quot;&gt;#2b303b&lt;/font&gt;" style="text;html=1;strokeColor=none;fillColor=none;align=left;verticalAlign=top;whiteSpace=wrap;rounded=0;fontColor=#EFF1F5;spacing=0;fontSize=14;" parent="1" vertex="1">
                    <mxGeometry x="70" y="20" width="90" height="40" as="geometry"/>
                </mxCell>
                <mxCell id="17" value="&lt;b&gt;Blue&lt;/b&gt;&lt;br&gt;&lt;font style=&quot;font-size: 12px;&quot;&gt;#5e81ac&lt;/font&gt;" style="text;html=1;strokeColor=none;fillColor=none;align=left;verticalAlign=top;whiteSpace=wrap;rounded=0;fontColor=#EFF1F5;spacing=0;fontSize=14;" parent="1" vertex="1">
                    <mxGeometry x="70" y="120" width="90" height="40" as="geometry"/>
                </mxCell>
                <mxCell id="18" value="&lt;b&gt;Cyan&lt;/b&gt;&lt;br&gt;&lt;font style=&quot;font-size: 12px;&quot;&gt;#96b5b4&lt;/font&gt;" style="text;html=1;strokeColor=none;fillColor=none;align=left;verticalAlign=top;whiteSpace=wrap;rounded=0;fontColor=#EFF1F5;spacing=0;fontSize=14;" parent="1" vertex="1">
                    <mxGeometry x="70" y="170" width="90" height="40" as="geometry"/>
                </mxCell>
                <mxCell id="19" value="&lt;b&gt;Green&lt;/b&gt;&lt;br&gt;&lt;font style=&quot;font-size: 12px;&quot;&gt;#a3be8c&lt;/font&gt;" style="text;html=1;strokeColor=none;fillColor=none;align=left;verticalAlign=top;whiteSpace=wrap;rounded=0;fontColor=#EFF1F5;spacing=0;fontSize=14;" parent="1" vertex="1">
                    <mxGeometry x="70" y="220" width="90" height="40" as="geometry"/>
                </mxCell>
                <mxCell id="20" value="&lt;b&gt;Magenta&lt;/b&gt;&lt;br&gt;&lt;font style=&quot;font-size: 12px;&quot;&gt;#b48ead&lt;/font&gt;" style="text;html=1;strokeColor=none;fillColor=none;align=left;verticalAlign=top;whiteSpace=wrap;rounded=0;fontColor=#EFF1F5;spacing=0;fontSize=14;" parent="1" vertex="1">
                    <mxGeometry x="70" y="270" width="90" height="40" as="geometry"/>
                </mxCell>
                <mxCell id="21" value="&lt;b&gt;Red&lt;/b&gt;&lt;br&gt;&lt;font style=&quot;font-size: 12px;&quot;&gt;#bf616a&lt;/font&gt;" style="text;html=1;strokeColor=none;fillColor=none;align=left;verticalAlign=top;whiteSpace=wrap;rounded=0;fontColor=#EFF1F5;spacing=0;fontSize=14;" parent="1" vertex="1">
                    <mxGeometry x="70" y="320" width="90" height="40" as="geometry"/>
                </mxCell>
                <mxCell id="22" value="&lt;b&gt;White&lt;/b&gt;&lt;br&gt;&lt;font style=&quot;font-size: 12px;&quot;&gt;#c7ccd1&lt;/font&gt;" style="text;html=1;strokeColor=none;fillColor=none;align=left;verticalAlign=top;whiteSpace=wrap;rounded=0;fontColor=#EFF1F5;spacing=0;fontSize=14;" parent="1" vertex="1">
                    <mxGeometry x="70" y="70" width="90" height="40" as="geometry"/>
                </mxCell>
                <mxCell id="23" value="&lt;b&gt;Yellow&lt;/b&gt;&lt;br&gt;&lt;font style=&quot;font-size: 12px;&quot;&gt;#ebcb8b&lt;/font&gt;" style="text;html=1;strokeColor=none;fillColor=none;align=left;verticalAlign=top;whiteSpace=wrap;rounded=0;fontColor=#EFF1F5;spacing=0;fontSize=14;" parent="1" vertex="1">
                    <mxGeometry x="70" y="370" width="90" height="40" as="geometry"/>
                </mxCell>
                <mxCell id="24" value="" style="ellipse;whiteSpace=wrap;html=1;fillColor=#5E81AC;strokeColor=#5E81AC;" parent="1" vertex="1">
                    <mxGeometry x="160" y="120" width="40" height="40" as="geometry"/>
                </mxCell>
                <mxCell id="25" value="" style="ellipse;whiteSpace=wrap;html=1;fillColor=#6b7280;strokeColor=#6b7280;" parent="1" vertex="1">
                    <mxGeometry x="160" y="20" width="40" height="40" as="geometry"/>
                </mxCell>
                <mxCell id="26" value="" style="ellipse;whiteSpace=wrap;html=1;fillColor=#96B5B4;strokeColor=#96B5B4;" parent="1" vertex="1">
                    <mxGeometry x="160" y="170" width="40" height="40" as="geometry"/>
                </mxCell>
                <mxCell id="27" value="" style="ellipse;whiteSpace=wrap;html=1;fillColor=#A3BE8C;strokeColor=#A3BE8C;" parent="1" vertex="1">
                    <mxGeometry x="160" y="220" width="40" height="40" as="geometry"/>
                </mxCell>
                <mxCell id="28" value="" style="ellipse;whiteSpace=wrap;html=1;fillColor=#B48EAD;strokeColor=#B48EAD;" parent="1" vertex="1">
                    <mxGeometry x="160" y="270" width="40" height="40" as="geometry"/>
                </mxCell>
                <mxCell id="29" value="" style="ellipse;whiteSpace=wrap;html=1;fillColor=#BF616A;strokeColor=#BF616A;" parent="1" vertex="1">
                    <mxGeometry x="160" y="320" width="40" height="40" as="geometry"/>
                </mxCell>
                <mxCell id="30" value="" style="ellipse;whiteSpace=wrap;html=1;fillColor=#e4e7eb;strokeColor=#e4e7eb;" parent="1" vertex="1">
                    <mxGeometry x="160" y="70" width="40" height="40" as="geometry"/>
                </mxCell>
                <mxCell id="31" value="" style="ellipse;whiteSpace=wrap;html=1;fillColor=#EBCB8B;strokeColor=#EBCB8B;" parent="1" vertex="1">
                    <mxGeometry x="160" y="370" width="40" height="40" as="geometry"/>
                </mxCell>
                <mxCell id="32" value="&lt;b&gt;Black - Bright&lt;/b&gt;&lt;br&gt;&lt;font style=&quot;font-size: 12px;&quot;&gt;#6b7280&lt;/font&gt;" style="text;html=1;strokeColor=none;fillColor=none;align=left;verticalAlign=top;whiteSpace=wrap;rounded=0;fontColor=#EFF1F5;spacing=0;fontSize=14;" parent="1" vertex="1">
                    <mxGeometry x="210" y="20" width="120" height="40" as="geometry"/>
                </mxCell>
                <mxCell id="33" value="&lt;b&gt;Blue - Bright&lt;/b&gt;&lt;br&gt;&lt;font style=&quot;font-size: 12px;&quot;&gt;#&lt;/font&gt;&lt;span style=&quot;font-size: 12px;&quot;&gt;5e81ac&lt;/span&gt;" style="text;html=1;strokeColor=none;fillColor=none;align=left;verticalAlign=top;whiteSpace=wrap;rounded=0;fontColor=#EFF1F5;spacing=0;fontSize=14;" parent="1" vertex="1">
                    <mxGeometry x="210" y="120" width="120" height="40" as="geometry"/>
                </mxCell>
                <mxCell id="34" value="&lt;b&gt;Cyan - Bright&lt;/b&gt;&lt;br&gt;&lt;font style=&quot;font-size: 12px;&quot;&gt;#&lt;/font&gt;&lt;span style=&quot;font-size: 12px;&quot;&gt;96b5b4&lt;/span&gt;" style="text;html=1;strokeColor=none;fillColor=none;align=left;verticalAlign=top;whiteSpace=wrap;rounded=0;fontColor=#EFF1F5;spacing=0;fontSize=14;" parent="1" vertex="1">
                    <mxGeometry x="210" y="170" width="120" height="40" as="geometry"/>
                </mxCell>
                <mxCell id="35" value="&lt;b&gt;Green - Bright&lt;/b&gt;&lt;br&gt;&lt;font style=&quot;font-size: 12px;&quot;&gt;#&lt;/font&gt;&lt;span style=&quot;font-size: 12px;&quot;&gt;a3be8c&lt;/span&gt;" style="text;html=1;strokeColor=none;fillColor=none;align=left;verticalAlign=top;whiteSpace=wrap;rounded=0;fontColor=#EFF1F5;spacing=0;fontSize=14;" parent="1" vertex="1">
                    <mxGeometry x="210" y="220" width="120" height="40" as="geometry"/>
                </mxCell>
                <mxCell id="36" value="&lt;b&gt;Magenta - Bright&lt;/b&gt;&lt;br&gt;&lt;font style=&quot;font-size: 12px;&quot;&gt;#&lt;/font&gt;&lt;span style=&quot;font-size: 12px;&quot;&gt;b48ead&lt;/span&gt;" style="text;html=1;strokeColor=none;fillColor=none;align=left;verticalAlign=top;whiteSpace=wrap;rounded=0;fontColor=#EFF1F5;spacing=0;fontSize=14;" parent="1" vertex="1">
                    <mxGeometry x="210" y="270" width="120" height="40" as="geometry"/>
                </mxCell>
                <mxCell id="37" value="&lt;b&gt;Red - Bright&lt;/b&gt;&lt;br&gt;&lt;font style=&quot;font-size: 12px;&quot;&gt;#&lt;/font&gt;&lt;span style=&quot;font-size: 12px;&quot;&gt;bf616a&lt;/span&gt;" style="text;html=1;strokeColor=none;fillColor=none;align=left;verticalAlign=top;whiteSpace=wrap;rounded=0;fontColor=#EFF1F5;spacing=0;fontSize=14;" parent="1" vertex="1">
                    <mxGeometry x="210" y="320" width="120" height="40" as="geometry"/>
                </mxCell>
                <mxCell id="38" value="&lt;b&gt;White - Bright&lt;/b&gt;&lt;br&gt;&lt;font style=&quot;font-size: 12px;&quot;&gt;#e4e7eb&lt;/font&gt;" style="text;html=1;strokeColor=none;fillColor=none;align=left;verticalAlign=top;whiteSpace=wrap;rounded=0;fontColor=#EFF1F5;spacing=0;fontSize=14;" parent="1" vertex="1">
                    <mxGeometry x="210" y="70" width="120" height="40" as="geometry"/>
                </mxCell>
                <mxCell id="39" value="&lt;b&gt;Yellow - Bright&lt;/b&gt;&lt;br&gt;&lt;font style=&quot;font-size: 12px;&quot;&gt;#&lt;/font&gt;&lt;span style=&quot;font-size: 12px;&quot;&gt;ebcb8b&lt;/span&gt;" style="text;html=1;strokeColor=none;fillColor=none;align=left;verticalAlign=top;whiteSpace=wrap;rounded=0;fontColor=#EFF1F5;spacing=0;fontSize=14;" parent="1" vertex="1">
                    <mxGeometry x="210" y="370" width="120" height="40" as="geometry"/>
                </mxCell>
                <mxCell id="40" value="" style="rounded=0;whiteSpace=wrap;html=1;strokeColor=none;fillColor=#EFF1F5;" parent="1" vertex="1">
                    <mxGeometry x="350" width="350" height="430" as="geometry"/>
                </mxCell>
                <mxCell id="41" value="" style="ellipse;whiteSpace=wrap;html=1;fillColor=#5E81AC;strokeColor=#5E81AC;" parent="1" vertex="1">
                    <mxGeometry x="370" y="120" width="40" height="40" as="geometry"/>
                </mxCell>
                <mxCell id="42" value="" style="ellipse;whiteSpace=wrap;html=1;fillColor=#2B303B;strokeColor=#2B303B;" parent="1" vertex="1">
                    <mxGeometry x="370" y="20" width="40" height="40" as="geometry"/>
                </mxCell>
                <mxCell id="43" value="" style="ellipse;whiteSpace=wrap;html=1;fillColor=#96B5B4;strokeColor=#96B5B4;" parent="1" vertex="1">
                    <mxGeometry x="370" y="170" width="40" height="40" as="geometry"/>
                </mxCell>
                <mxCell id="44" value="" style="ellipse;whiteSpace=wrap;html=1;fillColor=#A3BE8C;strokeColor=#A3BE8C;" parent="1" vertex="1">
                    <mxGeometry x="370" y="220" width="40" height="40" as="geometry"/>
                </mxCell>
                <mxCell id="45" value="" style="ellipse;whiteSpace=wrap;html=1;fillColor=#B48EAD;strokeColor=#B48EAD;" parent="1" vertex="1">
                    <mxGeometry x="370" y="270" width="40" height="40" as="geometry"/>
                </mxCell>
                <mxCell id="46" value="" style="ellipse;whiteSpace=wrap;html=1;fillColor=#BF616A;strokeColor=#BF616A;" parent="1" vertex="1">
                    <mxGeometry x="370" y="320" width="40" height="40" as="geometry"/>
                </mxCell>
                <mxCell id="47" value="" style="ellipse;whiteSpace=wrap;html=1;fillColor=#c7ccd1;strokeColor=#C7CCD1;" parent="1" vertex="1">
                    <mxGeometry x="370" y="70" width="40" height="40" as="geometry"/>
                </mxCell>
                <mxCell id="48" value="" style="ellipse;whiteSpace=wrap;html=1;fillColor=#EBCB8B;strokeColor=#EBCB8B;" parent="1" vertex="1">
                    <mxGeometry x="370" y="370" width="40" height="40" as="geometry"/>
                </mxCell>
                <mxCell id="49" value="&lt;b&gt;Black&lt;/b&gt;&lt;br&gt;&lt;font style=&quot;font-size: 12px;&quot;&gt;#2b303b&lt;/font&gt;" style="text;html=1;strokeColor=none;fillColor=none;align=left;verticalAlign=top;whiteSpace=wrap;rounded=0;fontColor=#2B303B;spacing=0;fontSize=14;" parent="1" vertex="1">
                    <mxGeometry x="420" y="20" width="90" height="40" as="geometry"/>
                </mxCell>
                <mxCell id="50" value="&lt;b&gt;Blue&lt;/b&gt;&lt;br&gt;&lt;font style=&quot;font-size: 12px;&quot;&gt;#5e81ac&lt;/font&gt;" style="text;html=1;strokeColor=none;fillColor=none;align=left;verticalAlign=top;whiteSpace=wrap;rounded=0;fontColor=#2B303B;spacing=0;fontSize=14;" parent="1" vertex="1">
                    <mxGeometry x="420" y="120" width="90" height="40" as="geometry"/>
                </mxCell>
                <mxCell id="51" value="&lt;b&gt;Cyan&lt;/b&gt;&lt;br&gt;&lt;font style=&quot;font-size: 12px;&quot;&gt;#96b5b4&lt;/font&gt;" style="text;html=1;strokeColor=none;fillColor=none;align=left;verticalAlign=top;whiteSpace=wrap;rounded=0;fontColor=#2B303B;spacing=0;fontSize=14;" parent="1" vertex="1">
                    <mxGeometry x="420" y="170" width="90" height="40" as="geometry"/>
                </mxCell>
                <mxCell id="52" value="&lt;b&gt;Green&lt;/b&gt;&lt;br&gt;&lt;font style=&quot;font-size: 12px;&quot;&gt;#a3be8c&lt;/font&gt;" style="text;html=1;strokeColor=none;fillColor=none;align=left;verticalAlign=top;whiteSpace=wrap;rounded=0;fontColor=#2B303B;spacing=0;fontSize=14;" parent="1" vertex="1">
                    <mxGeometry x="420" y="220" width="90" height="40" as="geometry"/>
                </mxCell>
                <mxCell id="53" value="&lt;b&gt;Magenta&lt;/b&gt;&lt;br&gt;&lt;font style=&quot;font-size: 12px;&quot;&gt;#b48ead&lt;/font&gt;" style="text;html=1;strokeColor=none;fillColor=none;align=left;verticalAlign=top;whiteSpace=wrap;rounded=0;fontColor=#2B303B;spacing=0;fontSize=14;" parent="1" vertex="1">
                    <mxGeometry x="420" y="270" width="90" height="40" as="geometry"/>
                </mxCell>
                <mxCell id="54" value="&lt;b&gt;Red&lt;/b&gt;&lt;br&gt;&lt;font style=&quot;font-size: 12px;&quot;&gt;#bf616a&lt;/font&gt;" style="text;html=1;strokeColor=none;fillColor=none;align=left;verticalAlign=top;whiteSpace=wrap;rounded=0;fontColor=#2B303B;spacing=0;fontSize=14;" parent="1" vertex="1">
                    <mxGeometry x="420" y="320" width="90" height="40" as="geometry"/>
                </mxCell>
                <mxCell id="55" value="&lt;b&gt;White&lt;/b&gt;&lt;br&gt;&lt;font style=&quot;font-size: 12px;&quot;&gt;#c7ccd1&lt;/font&gt;" style="text;html=1;strokeColor=none;fillColor=none;align=left;verticalAlign=top;whiteSpace=wrap;rounded=0;fontColor=#2B303B;spacing=0;fontSize=14;" parent="1" vertex="1">
                    <mxGeometry x="420" y="70" width="90" height="40" as="geometry"/>
                </mxCell>
                <mxCell id="56" value="&lt;b&gt;Yellow&lt;/b&gt;&lt;br&gt;&lt;font style=&quot;font-size: 12px;&quot;&gt;#ebcb8b&lt;/font&gt;" style="text;html=1;strokeColor=none;fillColor=none;align=left;verticalAlign=top;whiteSpace=wrap;rounded=0;fontColor=#2B303B;spacing=0;fontSize=14;" parent="1" vertex="1">
                    <mxGeometry x="420" y="370" width="90" height="40" as="geometry"/>
                </mxCell>
                <mxCell id="57" value="" style="ellipse;whiteSpace=wrap;html=1;fillColor=#5E81AC;strokeColor=#5E81AC;" parent="1" vertex="1">
                    <mxGeometry x="510" y="120" width="40" height="40" as="geometry"/>
                </mxCell>
                <mxCell id="58" value="" style="ellipse;whiteSpace=wrap;html=1;fillColor=#6b7280;strokeColor=#6b7280;" parent="1" vertex="1">
                    <mxGeometry x="510" y="20" width="40" height="40" as="geometry"/>
                </mxCell>
                <mxCell id="59" value="" style="ellipse;whiteSpace=wrap;html=1;fillColor=#96B5B4;strokeColor=#96B5B4;" parent="1" vertex="1">
                    <mxGeometry x="510" y="170" width="40" height="40" as="geometry"/>
                </mxCell>
                <mxCell id="60" value="" style="ellipse;whiteSpace=wrap;html=1;fillColor=#A3BE8C;strokeColor=#A3BE8C;" parent="1" vertex="1">
                    <mxGeometry x="510" y="220" width="40" height="40" as="geometry"/>
                </mxCell>
                <mxCell id="61" value="" style="ellipse;whiteSpace=wrap;html=1;fillColor=#B48EAD;strokeColor=#B48EAD;" parent="1" vertex="1">
                    <mxGeometry x="510" y="270" width="40" height="40" as="geometry"/>
                </mxCell>
                <mxCell id="62" value="" style="ellipse;whiteSpace=wrap;html=1;fillColor=#BF616A;strokeColor=#BF616A;" parent="1" vertex="1">
                    <mxGeometry x="510" y="320" width="40" height="40" as="geometry"/>
                </mxCell>
                <mxCell id="63" value="" style="ellipse;whiteSpace=wrap;html=1;fillColor=#e4e7eb;strokeColor=#C7CCD1;" parent="1" vertex="1">
                    <mxGeometry x="510" y="70" width="40" height="40" as="geometry"/>
                </mxCell>
                <mxCell id="64" value="" style="ellipse;whiteSpace=wrap;html=1;fillColor=#EBCB8B;strokeColor=#EBCB8B;" parent="1" vertex="1">
                    <mxGeometry x="510" y="370" width="40" height="40" as="geometry"/>
                </mxCell>
                <mxCell id="65" value="&lt;b&gt;Black - Bright&lt;/b&gt;&lt;br&gt;&lt;font style=&quot;font-size: 12px;&quot;&gt;#6b7280&lt;/font&gt;" style="text;html=1;strokeColor=none;fillColor=none;align=left;verticalAlign=top;whiteSpace=wrap;rounded=0;fontColor=#2B303B;spacing=0;fontSize=14;" parent="1" vertex="1">
                    <mxGeometry x="560" y="20" width="120" height="40" as="geometry"/>
                </mxCell>
                <mxCell id="66" value="&lt;b&gt;Blue - Bright&lt;/b&gt;&lt;br&gt;&lt;font style=&quot;font-size: 12px;&quot;&gt;#&lt;/font&gt;&lt;span style=&quot;font-size: 12px;&quot;&gt;5e81ac&lt;/span&gt;" style="text;html=1;strokeColor=none;fillColor=none;align=left;verticalAlign=top;whiteSpace=wrap;rounded=0;fontColor=#2B303B;spacing=0;fontSize=14;" parent="1" vertex="1">
                    <mxGeometry x="560" y="120" width="120" height="40" as="geometry"/>
                </mxCell>
                <mxCell id="67" value="&lt;b&gt;Cyan - Bright&lt;/b&gt;&lt;br&gt;&lt;font style=&quot;font-size: 12px;&quot;&gt;#&lt;/font&gt;&lt;span style=&quot;font-size: 12px;&quot;&gt;96b5b4&lt;/span&gt;" style="text;html=1;strokeColor=none;fillColor=none;align=left;verticalAlign=top;whiteSpace=wrap;rounded=0;fontColor=#2B303B;spacing=0;fontSize=14;" parent="1" vertex="1">
                    <mxGeometry x="560" y="170" width="120" height="40" as="geometry"/>
                </mxCell>
                <mxCell id="68" value="&lt;b&gt;Green - Bright&lt;/b&gt;&lt;br&gt;&lt;font style=&quot;font-size: 12px;&quot;&gt;#&lt;/font&gt;&lt;span style=&quot;font-size: 12px;&quot;&gt;a3be8c&lt;/span&gt;" style="text;html=1;strokeColor=none;fillColor=none;align=left;verticalAlign=top;whiteSpace=wrap;rounded=0;fontColor=#2B303B;spacing=0;fontSize=14;" parent="1" vertex="1">
                    <mxGeometry x="560" y="220" width="120" height="40" as="geometry"/>
                </mxCell>
                <mxCell id="69" value="&lt;b&gt;Magenta - Bright&lt;/b&gt;&lt;br&gt;&lt;font style=&quot;font-size: 12px;&quot;&gt;#&lt;/font&gt;&lt;span style=&quot;font-size: 12px;&quot;&gt;b48ead&lt;/span&gt;" style="text;html=1;strokeColor=none;fillColor=none;align=left;verticalAlign=top;whiteSpace=wrap;rounded=0;fontColor=#2B303B;spacing=0;fontSize=14;" parent="1" vertex="1">
                    <mxGeometry x="560" y="270" width="120" height="40" as="geometry"/>
                </mxCell>
                <mxCell id="70" value="&lt;b&gt;Red - Bright&lt;/b&gt;&lt;br&gt;&lt;font style=&quot;font-size: 12px;&quot;&gt;#&lt;/font&gt;&lt;span style=&quot;font-size: 12px;&quot;&gt;bf616a&lt;/span&gt;" style="text;html=1;strokeColor=none;fillColor=none;align=left;verticalAlign=top;whiteSpace=wrap;rounded=0;fontColor=#2B303B;spacing=0;fontSize=14;" parent="1" vertex="1">
                    <mxGeometry x="560" y="320" width="120" height="40" as="geometry"/>
                </mxCell>
                <mxCell id="71" value="&lt;b&gt;White - Bright&lt;/b&gt;&lt;br&gt;&lt;font style=&quot;font-size: 12px;&quot;&gt;#e4e7eb&lt;/font&gt;" style="text;html=1;strokeColor=none;fillColor=none;align=left;verticalAlign=top;whiteSpace=wrap;rounded=0;fontColor=#2B303B;spacing=0;fontSize=14;" parent="1" vertex="1">
                    <mxGeometry x="560" y="70" width="120" height="40" as="geometry"/>
                </mxCell>
                <mxCell id="72" value="&lt;b&gt;Yellow - Bright&lt;/b&gt;&lt;br&gt;&lt;font style=&quot;font-size: 12px;&quot;&gt;#&lt;/font&gt;&lt;span style=&quot;font-size: 12px;&quot;&gt;ebcb8b&lt;/span&gt;" style="text;html=1;strokeColor=none;fillColor=none;align=left;verticalAlign=top;whiteSpace=wrap;rounded=0;fontColor=#2B303B;spacing=0;fontSize=14;" parent="1" vertex="1">
                    <mxGeometry x="560" y="370" width="120" height="40" as="geometry"/>
                </mxCell>
            </root>
        </mxGraphModel>
    </diagram>
</mxfile>
